<?xml version="1.0"?>
<svg xmlns="http://www.w3.org/2000/svg" xmlns:xlink="http://www.w3.org/1999/xlink" xmlns:svgjs="http://svgjs.com/svgjs" version="1.1" width="512" height="512" x="0" y="0" viewBox="0 0 512 512" style="enable-background:new 0 0 512 512" xml:space="preserve" class=""><g>
<g xmlns="http://www.w3.org/2000/svg">
	<g>
		<path d="M315.669,101.08v15h-28.476c-10.044-4.361-44.768-19.311-82.519-34.091C112.325,45.834,91.944,45.834,85.246,45.834    C38.241,45.834,0,84.076,0,131.079c0,47.004,38.241,85.246,85.246,85.246c6.698,0,27.079,0,119.427-36.155    c37.752-14.78,72.476-29.73,82.519-34.091h28.476v15H512v-60H315.669z M85.246,75.834c17.59,0,71.955,19.424,124.085,40.246    H32.086C38.641,92.886,59.982,75.834,85.246,75.834z M85.246,186.326c-25.264,0.001-46.605-17.051-53.16-40.246h177.249    C157.206,166.902,102.842,186.326,85.246,186.326z" fill="#feb2b2" data-original="#000000" style="" class=""/>
	</g>
</g>
<g xmlns="http://www.w3.org/2000/svg">
	<g>
		<path d="M42.667,237.834v15c0,117.632,95.701,213.333,213.333,213.333s213.333-95.701,213.333-213.333v-15H42.667z" fill="#feb2b2" data-original="#000000" style="" class=""/>
	</g>
</g>
<g xmlns="http://www.w3.org/2000/svg">
</g>
<g xmlns="http://www.w3.org/2000/svg">
</g>
<g xmlns="http://www.w3.org/2000/svg">
</g>
<g xmlns="http://www.w3.org/2000/svg">
</g>
<g xmlns="http://www.w3.org/2000/svg">
</g>
<g xmlns="http://www.w3.org/2000/svg">
</g>
<g xmlns="http://www.w3.org/2000/svg">
</g>
<g xmlns="http://www.w3.org/2000/svg">
</g>
<g xmlns="http://www.w3.org/2000/svg">
</g>
<g xmlns="http://www.w3.org/2000/svg">
</g>
<g xmlns="http://www.w3.org/2000/svg">
</g>
<g xmlns="http://www.w3.org/2000/svg">
</g>
<g xmlns="http://www.w3.org/2000/svg">
</g>
<g xmlns="http://www.w3.org/2000/svg">
</g>
<g xmlns="http://www.w3.org/2000/svg">
</g>
</g></svg>
